<?xml version="1.0" encoding="utf-8"?>
<svg version="1.1" id="Layer_1" xmlns="http://www.w3.org/2000/svg" xmlns:xlink="http://www.w3.org/1999/xlink" x="0px" y="0px"
	 viewBox="0 0 117.65 64.71" style="enable-background:new 0 0 117.65 64.71;" xml:space="preserve">
<rect x="23.53" y="52.94" width="5.88" height="5.89"/>
<rect x="17.65" y="52.94" width="5.88" height="5.89"/>
<rect x="47.06" y="52.94" width="5.88" height="5.89"/>
<rect x="41.18" y="52.94" width="5.88" height="5.89"/>
<rect x="35.3" y="52.94" width="5.88" height="5.89"/>
<rect x="29.41" y="58.83" width="5.89" height="5.88"/>
<rect x="29.41" y="52.94" width="5.89" height="5.89"/>
<rect x="111.77" y="58.83" width="5.88" height="5.88"/>
<rect x="111.77" y="52.94" width="5.88" height="5.89"/>
<rect x="111.77" y="47.06" width="5.88" height="5.88"/>
<rect x="111.77" y="41.18" width="5.88" height="5.88"/>
<rect x="111.77" y="35.3" width="5.88" height="5.88"/>
<rect x="111.77" y="29.41" width="5.88" height="5.89"/>
<rect x="111.77" y="23.53" width="5.88" height="5.88"/>
<rect x="105.89" y="58.83" width="5.88" height="5.88"/>
<rect x="105.89" y="23.53" width="5.88" height="5.88"/>
<rect x="105.89" y="5.88" width="5.88" height="5.89"/>
<rect x="105.89" width="5.88" height="5.88"/>
<rect x="100" y="58.83" width="5.89" height="5.88"/>
<rect x="100" y="23.53" width="5.89" height="5.88"/>
<rect x="100" width="5.89" height="5.88"/>
<rect x="94.12" y="58.83" width="5.88" height="5.88"/>
<rect x="94.12" y="23.53" width="5.88" height="5.88"/>
<rect x="94.12" width="5.88" height="5.88"/>
<rect x="88.24" y="58.83" width="5.88" height="5.88"/>
<rect x="88.24" y="23.53" width="5.88" height="5.88"/>
<rect x="88.24" width="5.88" height="5.88"/>
<rect x="82.36" y="58.83" width="5.88" height="5.88"/>
<rect x="82.36" y="41.3" width="5.88" height="5.88"/>
<rect x="82.36" y="23.53" width="5.88" height="5.88"/>
<rect x="82.36" width="5.88" height="5.88"/>
<rect x="76.47" y="58.83" width="5.89" height="5.88"/>
<rect x="76.47" y="41.3" width="5.89" height="5.88"/>
<rect x="76.47" y="23.53" width="5.89" height="5.88"/>
<rect x="76.47" y="17.65" width="5.89" height="5.88"/>
<rect x="76.47" y="11.77" width="5.89" height="5.88"/>
<rect x="76.47" y="5.88" width="5.89" height="5.89"/>
<rect x="76.47" width="5.89" height="5.88"/>
<rect x="70.59" y="58.83" width="5.88" height="5.88"/>
<rect x="70.59" y="52.94" width="5.88" height="5.89"/>
<rect x="70.59" y="47.06" width="5.88" height="5.88"/>
<rect x="70.59" y="41.18" width="5.88" height="5.88"/>
<rect x="58.83" y="5.88" width="5.88" height="5.89"/>
<rect x="58.83" width="5.88" height="5.88"/>
<rect x="52.94" width="5.89" height="5.88"/>
<rect x="47.06" y="47.06" width="5.88" height="5.88"/>
<rect x="47.06" y="41.18" width="5.88" height="5.88"/>
<rect x="47.06" y="35.3" width="5.88" height="5.88"/>
<rect x="47.06" y="29.41" width="5.88" height="5.89"/>
<rect x="47.06" y="23.53" width="5.88" height="5.88"/>
<rect x="47.06" y="17.65" width="5.88" height="5.88"/>
<rect x="47.06" y="11.77" width="5.88" height="5.88"/>
<rect x="47.06" y="5.88" width="5.88" height="5.89"/>
<rect x="47.06" width="5.88" height="5.88"/>
<rect x="11.77" y="52.94" width="5.88" height="5.89"/>
<rect x="11.77" y="47.06" width="5.88" height="5.88"/>
<rect x="11.77" y="41.18" width="5.88" height="5.88"/>
<rect x="11.77" y="35.3" width="5.88" height="5.88"/>
<rect x="11.77" y="29.41" width="5.88" height="5.89"/>
<rect x="11.77" y="23.53" width="5.88" height="5.88"/>
<rect x="11.77" y="17.65" width="5.88" height="5.88"/>
<rect x="11.77" y="11.77" width="5.88" height="5.88"/>
<rect x="11.77" y="5.88" width="5.88" height="5.89"/>
<rect x="11.77" width="5.88" height="5.88"/>
<rect x="5.89" width="5.88" height="5.88"/>
<rect y="5.88" width="5.89" height="5.89"/>
<rect width="5.89" height="5.88"/>
</svg>
